<svg xmlns="http://www.w3.org/2000/svg" viewBox="6124 11384 87.037 39.281">
  <defs>
    <style>
      .cls-1 {
        fill: #a4b6c5;
      }

      .cls-2 {
        fill: #fff;
      }
    </style>
  </defs>
  <g id="Kifi" transform="translate(5256 10651)">
    <path id="Path_1710" data-name="Path 1710" class="cls-1" d="M221.693,54.218h.795l2.689-4.162h5.775l-4.676,6.313,4.676,7.061H225.2l-2.853-4.98h-.655v4.98H216.9V44h4.793Z" transform="translate(699.815 699.288)"/>
    <path id="Path_1711" data-name="Path 1711" class="cls-1" d="M283.536,41.4a2.675,2.675,0,0,1,1.076.21,2.462,2.462,0,0,1,.865.585,2.694,2.694,0,0,1,.585.865,2.756,2.756,0,0,1,.21,1.076,2.675,2.675,0,0,1-.21,1.076,2.462,2.462,0,0,1-.585.865,2.694,2.694,0,0,1-.865.585,2.757,2.757,0,0,1-1.076.21,2.675,2.675,0,0,1-1.076-.21,2.463,2.463,0,0,1-.865-.585,2.7,2.7,0,0,1-.585-.865,2.757,2.757,0,0,1-.21-1.076,2.675,2.675,0,0,1,.21-1.076,2.463,2.463,0,0,1,.585-.865,2.686,2.686,0,0,1,1.941-.795Zm2.408,20.038h-4.793V48.064h4.793Z" transform="translate(650.855 701.28)"/>
    <path id="Path_1712" data-name="Path 1712" class="cls-1" d="M319.39,48.907h-2.969v-.4a1.752,1.752,0,0,1,.3-1.169,1.2,1.2,0,0,1,.959-.351,2.715,2.715,0,0,1,1.029.164c.234.094.444.187.678.281V42.827c-.281-.07-.561-.14-.865-.21a8.212,8.212,0,0,0-1.567-.117,6.155,6.155,0,0,0-2.128.351,4.523,4.523,0,0,0-1.683,1.076,5.074,5.074,0,0,0-1.1,1.824,7.965,7.965,0,0,0-.4,2.6v.514H309.5v4.279h2.151v9.119h4.793V53.139h2.969V48.907Z" transform="translate(628.866 700.437)"/>
    <path id="Path_1713" data-name="Path 1713" class="cls-1" d="M360.136,41.4a2.675,2.675,0,0,1,1.076.21,2.464,2.464,0,0,1,.865.585,2.7,2.7,0,0,1,.584.865,2.756,2.756,0,0,1,.21,1.076,2.675,2.675,0,0,1-.21,1.076,2.463,2.463,0,0,1-.584.865,2.7,2.7,0,0,1-.865.585,2.757,2.757,0,0,1-1.076.21,2.675,2.675,0,0,1-1.076-.21,2.463,2.463,0,0,1-.865-.585,2.694,2.694,0,0,1-.585-.865,2.756,2.756,0,0,1-.21-1.076,2.675,2.675,0,0,1,.21-1.076,2.462,2.462,0,0,1,.585-.865,2.686,2.686,0,0,1,1.941-.795Zm2.408,20.038h-4.793V48.064h4.793Z" transform="translate(592.166 701.28)"/>
    <path id="Path_1714" data-name="Path 1714" class="cls-1" d="M39.047,8.6a8.612,8.612,0,0,0-8.6-8.6H8.6A8.612,8.612,0,0,0,0,8.6V30.677a8.612,8.612,0,0,0,8.6,8.6H30.443a8.612,8.612,0,0,0,8.6-8.6Z" transform="translate(868 733)"/>
    <g id="Group_1404" data-name="Group 1404" transform="translate(874.473 739.472)">
      <path id="Path_1715" data-name="Path 1715" class="cls-2" d="M42.506,88.925l-1.707.21a10.161,10.161,0,0,1,.21,1.543,12.939,12.939,0,0,1-.468,5.495c-1.309,3.32-3.694,2.174-3.694,2.174-2.5-1.239-.865-5.728-.865-5.728a8.94,8.94,0,0,1-2.736.631c-3.086.234-4.583-2.806-1.73-4.372A10.176,10.176,0,0,1,30,88.2c-2.432,1.146-2.665,6.594,3.133,6.617a6.667,6.667,0,0,0,.725-.047,6.622,6.622,0,0,0-.047.7,4.964,4.964,0,0,0,1.239,3.671,3.745,3.745,0,0,0,1.052.748,3.685,3.685,0,0,0,3.086.187C43.792,98.044,42.81,91.216,42.506,88.925Z" transform="translate(-28.216 -74.05)"/>
      <path id="Path_1716" data-name="Path 1716" class="cls-2" d="M48.568,49.057a6.666,6.666,0,0,0-.047-.725,6.62,6.62,0,0,0,.7.047,4.964,4.964,0,0,0,3.671-1.239,3.745,3.745,0,0,0,.748-1.052A3.685,3.685,0,0,0,53.829,43c-2.011-4.559-8.7-3.671-11.083-3.32h-.07c-.257.023-1.005.117-1.146.14-.117-.631-.3-1.59-.4-2.5a12.939,12.939,0,0,1,.468-5.495c1.309-3.32,3.694-2.174,3.694-2.174,2.5,1.239.865,5.728.865,5.728a6.888,6.888,0,0,1,2.736-.631c2.993-.094,4.372,2.6,1.847,4.372a5.465,5.465,0,0,1,1.4.655l.07.023c2.058-1.309,2.572-6.453-3.2-6.617a6.666,6.666,0,0,0-.725.047,6.621,6.621,0,0,0,.047-.7,4.964,4.964,0,0,0-1.239-3.671,3.745,3.745,0,0,0-1.052-.748,3.862,3.862,0,0,0-3.086-.187,4.506,4.506,0,0,0-2.034,1.637l-.023.023c-.023.023-.023.047-.047.07a10.435,10.435,0,0,0-.725,1.263,1.431,1.431,0,0,0-.117.281c-1.076,2.619-.514,6.9-.187,8.885-2.408.327-5.892.514-7.973-.14-3.414-1.052-2.221-3.6-2.221-3.6,1.239-2.5,5.728-.865,5.728-.865a7.287,7.287,0,0,1-.631-2.782c-.094-2.993,2.782-4.7,4.349-1.871a8.336,8.336,0,0,1,.7-1.45c-1.146-2.478-6.453-2.572-6.617,3.2a6.667,6.667,0,0,0,.047.725,6.623,6.623,0,0,0-.7-.047c-5.237.117-5.074,4.442-4.606,5.378,1.473,3.04,4.442,3.484,7.576,3.367,6.991-.281,11.2-1.894,14.38-.561,3.694,1.543,3.3,5.822-1.38,5.261a9.293,9.293,0,0,1-2.1-.514A8.941,8.941,0,0,1,47,48.917C47.235,52,44.2,53.5,42.629,50.647a10.175,10.175,0,0,1-.678,1.52C43.1,54.622,48.544,54.855,48.568,49.057Z" transform="translate(-27.684 -27.682)"/>
    </g>
  </g>
</svg>
