<svg xmlns="http://www.w3.org/2000/svg" viewBox="5886 11384 181.936 39.063">
  <defs>
    <style>
      .cls-1 {
        fill: #a4b6c5;
      }
    </style>
  </defs>
  <g id="Cronologics" transform="translate(5397.931 10651.063)">
    <path id="Path_1717" data-name="Path 1717" class="cls-1" d="M131.708,48.185a5.242,5.242,0,0,1-3.8-1.555c-1.411-1.411-1.411-3-1.411-5.787s-.036-4.377,1.411-5.787a5.266,5.266,0,0,1,3.8-1.555,4.963,4.963,0,0,1,5.136,4.449H134.6a3,3,0,0,0-5.064-1.591c-.723.76-.868,1.591-.868,4.485s.181,3.725.868,4.485a3,3,0,0,0,5.064-1.591h2.206A4.934,4.934,0,0,1,131.708,48.185Z" transform="translate(407.324 711.554)"/>
    <path id="Path_1718" data-name="Path 1718" class="cls-1" d="M172.257,48.3l-3.038-6.077H166.47V48.3H164.3V33.9h5.606c2.749,0,4.485,1.772,4.485,4.2a3.8,3.8,0,0,1-2.857,3.834l3.328,6.366Zm-2.532-12.442H166.47v4.521h3.255a2.269,2.269,0,1,0,0-4.521Z" transform="translate(383.196 711.298)"/>
    <path id="Path_1719" data-name="Path 1719" class="cls-1" d="M209.606,46.63a5.266,5.266,0,0,1-3.8,1.555,5.125,5.125,0,0,1-3.8-1.555c-1.411-1.411-1.411-3-1.411-5.787s-.036-4.377,1.411-5.787a5.205,5.205,0,0,1,3.8-1.555,5.068,5.068,0,0,1,3.8,1.555c1.411,1.411,1.374,3,1.374,5.787S211.017,45.219,209.606,46.63Zm-1.664-10.272a2.97,2.97,0,0,0-4.268,0c-.723.76-.868,1.591-.868,4.485s.145,3.689.868,4.485a2.97,2.97,0,0,0,4.268,0c.723-.76.832-1.591.832-4.485S208.63,37.117,207.942,36.357Z" transform="translate(360.026 711.554)"/>
    <path id="Path_1720" data-name="Path 1720" class="cls-1" d="M248.225,48.3,241.57,38.168V48.3H239.4V33.9h1.989l6.655,10.128V33.9h2.17V48.332h-1.989Z" transform="translate(335.26 711.298)"/>
    <path id="Path_1721" data-name="Path 1721" class="cls-1" d="M288.406,46.63a5.266,5.266,0,0,1-3.8,1.555,5.125,5.125,0,0,1-3.8-1.555c-1.411-1.411-1.411-3-1.411-5.787s-.036-4.377,1.411-5.787a5.205,5.205,0,0,1,3.8-1.555,5.068,5.068,0,0,1,3.8,1.555c1.411,1.411,1.374,3,1.374,5.787S289.817,45.219,288.406,46.63Zm-1.664-10.272a2.973,2.973,0,0,0-2.134-.9,2.911,2.911,0,0,0-2.134.9c-.723.76-.868,1.591-.868,4.485s.145,3.689.868,4.485a2.973,2.973,0,0,0,2.134.9,2.911,2.911,0,0,0,2.134-.9c.723-.76.868-1.591.868-4.485C287.574,37.949,287.466,37.117,286.742,36.357Z" transform="translate(309.728 711.554)"/>
    <path id="Path_1722" data-name="Path 1722" class="cls-1" d="M318.2,48.3V33.9h2.17V46.342h6.945V48.3H318.2Z" transform="translate(284.961 711.298)"/>
    <path id="Path_1723" data-name="Path 1723" class="cls-1" d="M357.206,46.63a5.266,5.266,0,0,1-3.8,1.555,5.125,5.125,0,0,1-3.8-1.555c-1.411-1.411-1.411-3-1.411-5.787s-.036-4.377,1.411-5.787a5.205,5.205,0,0,1,3.8-1.555,5.068,5.068,0,0,1,3.8,1.555c1.411,1.411,1.374,3,1.374,5.787S358.617,45.219,357.206,46.63Zm-1.664-10.272a2.97,2.97,0,0,0-4.268,0c-.723.76-.868,1.591-.868,4.485s.145,3.689.868,4.485a2.973,2.973,0,0,0,2.134.9,2.911,2.911,0,0,0,2.134-.9c.723-.76.868-1.591.868-4.485S356.266,37.117,355.542,36.357Z" transform="translate(265.812 711.554)"/>
    <path id="Path_1724" data-name="Path 1724" class="cls-1" d="M394.687,46.457a5.546,5.546,0,0,1-7.776.072c-1.411-1.411-1.411-3-1.411-5.787s-.036-4.377,1.411-5.787a5.205,5.205,0,0,1,3.8-1.555,5.041,5.041,0,0,1,5.245,4.485h-2.206a3.054,3.054,0,0,0-5.172-1.591c-.723.76-.868,1.591-.868,4.485s.145,3.725.868,4.485a2.884,2.884,0,0,0,2.134.868,3.085,3.085,0,0,0,2.351-1.013,3.2,3.2,0,0,0,.723-2.279v-.8h-3.074V40.164h5.281V42.37A5.463,5.463,0,0,1,394.687,46.457Z" transform="translate(242.004 711.617)"/>
    <path id="Path_1725" data-name="Path 1725" class="cls-1" d="M424.5,48.3V33.9h2.17V48.332H424.5Z" transform="translate(217.11 711.298)"/>
    <path id="Path_1726" data-name="Path 1726" class="cls-1" d="M445.708,48.185a5.242,5.242,0,0,1-3.8-1.555c-1.411-1.411-1.411-3-1.411-5.787s-.036-4.377,1.411-5.787a5.266,5.266,0,0,1,3.8-1.555,4.963,4.963,0,0,1,5.136,4.449h-2.206a2.9,2.9,0,0,0-2.93-2.46,2.944,2.944,0,0,0-2.134.868c-.723.76-.868,1.591-.868,4.485s.181,3.725.868,4.485a3,3,0,0,0,5.064-1.591h2.206A4.991,4.991,0,0,1,445.708,48.185Z" transform="translate(206.897 711.554)"/>
    <path id="Path_1727" data-name="Path 1727" class="cls-1" d="M479.9,48.185a6.476,6.476,0,0,1-5.1-1.917l1.447-1.447a4.767,4.767,0,0,0,3.689,1.374c1.881,0,2.966-.8,2.966-2.206a1.859,1.859,0,0,0-.579-1.483,2.521,2.521,0,0,0-1.591-.615l-1.7-.253a5.056,5.056,0,0,1-2.749-1.157,3.521,3.521,0,0,1-1.049-2.749c0-2.5,1.809-4.232,4.811-4.232a5.978,5.978,0,0,1,4.485,1.628L483.119,36.5a4.187,4.187,0,0,0-3.147-1.121c-1.7,0-2.64.977-2.64,2.243a1.674,1.674,0,0,0,.543,1.338,2.922,2.922,0,0,0,1.628.651l1.628.253a4.744,4.744,0,0,1,2.677,1.085A3.79,3.79,0,0,1,485,43.917C485.072,46.593,482.9,48.185,479.9,48.185Z" transform="translate(185.003 711.554)"/>
    <g id="Group_1407" data-name="Group 1407" transform="translate(488.069 732.937)">
      <path id="Path_1728" data-name="Path 1728" class="cls-1" d="M19.532,0A19.532,19.532,0,1,0,39.063,19.532,19.543,19.543,0,0,0,19.532,0Zm0,37.761a18.211,18.211,0,1,1,18.23-18.193A18.238,18.238,0,0,1,19.532,37.761Z"/>
      <g id="Group_1406" data-name="Group 1406" transform="translate(4.087 3.943)">
        <path id="Path_1729" data-name="Path 1729" class="cls-1" d="M45.564,33.7a8.124,8.124,0,1,0,.072,12.045l-5.968-6Z" transform="translate(-24.513 -24.113)"/>
        <path id="Path_1730" data-name="Path 1730" class="cls-1" d="M64.7,47.713a12.018,12.018,0,0,0,3.183-8.1A11.879,11.879,0,0,0,64.63,31.4L56.6,39.611Z" transform="translate(-40.215 -23.985)"/>
        <path id="Path_1731" data-name="Path 1731" class="cls-1" d="M26.925,10.9A15.625,15.625,0,1,0,37.668,37.883l-2.062-2.134a12.662,12.662,0,1,1-8.681-21.883,12.8,12.8,0,0,1,8.608,3.364L37.6,15.1A15.48,15.48,0,0,0,26.925,10.9Z" transform="translate(-11.3 -10.9)"/>
      </g>
    </g>
  </g>
</svg>
