<svg xmlns="http://www.w3.org/2000/svg" viewBox="5696 11389 133.564 30.106">
  <defs>
    <style>
      .cls-1 {
        fill: #a4b6c5;
      }
    </style>
  </defs>
  <g id="Ellie-mae" transform="translate(5342.219 10564)">
    <path id="Path_1732" data-name="Path 1732" class="cls-1" d="M0-.1H18.617V5.621H7.466v5.963h7.466V17.3H7.466v6.157H18.617v5.963H0Z" transform="translate(353.781 825.1)"/>
    <path id="Path_1733" data-name="Path 1733" class="cls-1" d="M42.7-.1h6.739V29.473H42.7Z" transform="translate(331.782 825.1)"/>
    <path id="Path_1734" data-name="Path 1734" class="cls-1" d="M61.9-.1h6.739V29.473H61.9Z" transform="translate(321.891 825.1)"/>
    <path id="Path_1735" data-name="Path 1735" class="cls-1" d="M81.2-.1h6.739V5.863H81.2Zm0,8.727h6.739V29.473H81.2Z" transform="translate(311.947 825.1)"/>
    <path id="Path_1736" data-name="Path 1736" class="cls-1" d="M105.139,29.311c0,1.842.388,4.945,3.054,4.945a3.547,3.547,0,0,0,3.394-2.86l4.509,1.648a8.576,8.576,0,0,1-8.339,5.672c-6.448,0-9.357-5.187-9.357-10.957,0-5.915,3.054-10.86,9.26-10.86,6.5,0,8.727,5.575,8.727,11.005v1.406Zm4.994-3.975c-.048-1.939-.194-4.218-2.521-4.218-1.891,0-2.473,2.23-2.473,4.218Z" transform="translate(303.086 816.342)"/>
    <path id="Path_1737" data-name="Path 1737" class="cls-1" d="M139.4-.1h10.472l3.2,16.58h.1L156.95-.1h10.181V29.473h-7.466V7.657h-.1l-5.09,21.816h-4.509l-4.7-22.592h-.1V29.473h-5.721V-.1Z" transform="translate(281.963 825.1)"/>
    <path id="Path_1738" data-name="Path 1738" class="cls-1" d="M210.163,23.59c0-1.26-.533-2.473-1.745-2.473-1.551,0-2.085,1.6-2.182,2.763l-5.866-1.212c.727-4.121,4.46-5.769,8.29-5.769,4.024,0,8.242,1.745,8.242,6.351V34.886c0,2.376.388,3.054.63,3.345H210.6a12.509,12.509,0,0,1-.194-1.891,6.726,6.726,0,0,1-5.042,2.424c-3.636,0-5.963-2.327-5.963-6.4,0-5.624,6.3-7.224,10.86-7.369V23.59Zm0,4.654c-2.569.242-4.121.727-4.121,3.782,0,1.454.727,2.23,1.939,2.23a3.348,3.348,0,0,0,2.182-1.309Z" transform="translate(251.052 816.342)"/>
    <path id="Path_1739" data-name="Path 1739" class="cls-1" d="M241.139,29.311c0,1.842.388,4.945,3.054,4.945a3.547,3.547,0,0,0,3.394-2.86l4.509,1.648a8.576,8.576,0,0,1-8.339,5.672c-6.448,0-9.357-5.187-9.357-10.957,0-5.915,3.054-10.86,9.26-10.86,6.5,0,8.727,5.575,8.727,11.005v1.406Zm4.993-3.975c-.048-1.939-.194-4.218-2.521-4.218-1.891,0-2.473,2.23-2.473,4.218Z" transform="translate(234.959 816.342)"/>
  </g>
</svg>
