<svg xmlns="http://www.w3.org/2000/svg" xmlns:xlink="http://www.w3.org/1999/xlink" viewBox="5847.388 14822 26.269 26.269">
  <defs>
    <style>
      .cls-1, .cls-2 {
        fill: none;
      }

      .cls-1 {
        clip-rule: evenodd;
      }

      .cls-3 {
        opacity: 0.5;
        clip-path: url(#clip-path);
      }

      .cls-4 {
        clip-path: url(#clip-path-2);
      }

      .cls-5 {
        fill: #607d8a;
      }
    </style>
    <clipPath id="clip-path">
      <path id="Path_1541" data-name="Path 1541" class="cls-1" d="M146.269-31.731h-5.254v-9.193c0-2.522-1.112-3.928-3.108-3.928-2.171,0-3.46,1.466-3.46,3.928v9.193h-5.254V-48.806h5.254v1.92a6.332,6.332,0,0,1,5.363-2.892c3.716,0,6.458,2.267,6.458,6.959v11.088ZM123.207-51.537A3.22,3.22,0,0,1,120-54.769,3.22,3.22,0,0,1,123.207-58a3.219,3.219,0,0,1,3.206,3.231,3.219,3.219,0,0,1-3.206,3.232ZM120-31.731h6.567V-48.806H120Z" transform="translate(-120 58)"/>
    </clipPath>
    <clipPath id="clip-path-2">
      <path id="Path_1540" data-name="Path 1540" class="cls-2" d="M-20,236.03H531.642V-158H-20Z" transform="translate(20 158)"/>
    </clipPath>
  </defs>
  <g id="Linkedin" class="cls-3" transform="translate(5847.388 14822)">
    <g id="Group_1316" data-name="Group 1316" class="cls-4" transform="translate(-183.881 -131.343)">
      <path id="Path_1539" data-name="Path 1539" class="cls-5" d="M115-23.6h39.4V-63H115Z" transform="translate(62.313 187.776)"/>
    </g>
  </g>
</svg>
