<svg xmlns="http://www.w3.org/2000/svg" xmlns:xlink="http://www.w3.org/1999/xlink" viewBox="6061.478 14822 26.269 26.269">
  <defs>
    <style>
      .cls-1, .cls-2 {
        fill: none;
      }

      .cls-1 {
        clip-rule: evenodd;
      }

      .cls-3 {
        opacity: 0.5;
        clip-path: url(#clip-path);
      }

      .cls-4 {
        clip-path: url(#clip-path-2);
      }

      .cls-5 {
        fill: #607d8a;
      }
    </style>
    <clipPath id="clip-path">
      <path id="Path_1544" data-name="Path 1544" class="cls-1" d="M287.709-97.839a7.811,7.811,0,0,0-5.488,2.109,7.774,7.774,0,0,0-2.115,5.474c-.06,1.321-.412,11.3.608,13.914a6.621,6.621,0,0,0,3.823,3.812,9.592,9.592,0,0,0,3.172.606c11.638.527,15.952.24,17.771-4.418a9.508,9.508,0,0,0,.606-3.165c.532-11.668-.086-14.2-2.115-16.223-1.609-1.6-3.5-2.7-16.263-2.109m.107,23.569a7.237,7.237,0,0,1-2.427-.448,4.275,4.275,0,0,1-2.481-2.473c-.776-1.988-.519-11.431-.45-12.959a5.577,5.577,0,0,1,1.427-3.92c1.307-1.3,3-1.942,14.492-1.424a5.608,5.608,0,0,1,3.93,1.424c1.307,1.3,1.955,3,1.427,14.458a7.191,7.191,0,0,1-.45,2.421c-1.183,3.031-3.9,3.452-15.47,2.922m10.689-17.571a1.567,1.567,0,0,0,1.568,1.564,1.568,1.568,0,0,0,1.57-1.564,1.568,1.568,0,0,0-1.57-1.564,1.567,1.567,0,0,0-1.568,1.564m-12.119,6.959a6.7,6.7,0,0,0,6.711,6.694,6.7,6.7,0,0,0,6.711-6.694,6.7,6.7,0,0,0-6.711-6.693,6.7,6.7,0,0,0-6.711,6.693m2.355,0a4.351,4.351,0,0,1,4.356-4.345,4.351,4.351,0,0,1,4.356,4.345,4.351,4.351,0,0,1-4.356,4.346,4.351,4.351,0,0,1-4.356-4.346" transform="translate(-280 98)"/>
    </clipPath>
    <clipPath id="clip-path-2">
      <path id="Path_1543" data-name="Path 1543" class="cls-2" d="M-20,236.03H531.642V-158H-20Z" transform="translate(20 158)"/>
    </clipPath>
  </defs>
  <g id="Instagram" class="cls-3" transform="translate(6061.478 14822)">
    <g id="Group_1318" data-name="Group 1318" class="cls-4" transform="translate(-394.03 -78.806)">
      <path id="Path_1542" data-name="Path 1542" class="cls-5" d="M275-63.6h39.4V-103H275Z" transform="translate(112.463 175.239)"/>
    </g>
  </g>
</svg>
