<svg width="262" height="41" viewBox="0 0 262 41" version="1.1" xmlns="http://www.w3.org/2000/svg" xmlns:xlink="http://www.w3.org/1999/xlink">
<title>bbb</title>
<desc>Created using Figma</desc>
<g id="Canvas" transform="translate(230 38)">
<g id="bbb">
<g id="Vector">
<use xlink:href="#path0_fill" transform="translate(-230 -38)" fill="#ABB8BF"/>
</g>
<g id="Expert">
<use xlink:href="#path1_fill" transform="translate(-50.5244 -25.3281)" fill="#ABB8BF"/>
<use xlink:href="#path2_fill" transform="translate(-50.5244 -25.3281)" fill="#ABB8BF"/>
<use xlink:href="#path3_fill" transform="translate(-50.5244 -25.3281)" fill="#ABB8BF"/>
<use xlink:href="#path4_fill" transform="translate(-50.5244 -25.3281)" fill="#ABB8BF"/>
<use xlink:href="#path5_fill" transform="translate(-50.5244 -25.3281)" fill="#ABB8BF"/>
<use xlink:href="#path6_fill" transform="translate(-50.5244 -25.3281)" fill="#ABB8BF"/>
</g>
</g>
</g>
<defs>
<path id="path0_fill" d="M 52.9556 16.033C 52.9556 13.1087 50.0948 10.003 45.1441 10.003C 39.5848 10.003 33.4777 14.0566 32.5444 22.1436C 31.5907 30.3114 36.7037 33.9415 41.8572 33.9415C 47.0108 33.9415 49.7093 31.9449 52.4686 29.2828C 50.0948 26.3182 47.0311 27.6896 46.4427 27.9921C 45.7934 28.3148 44.9615 28.7585 43.2572 28.7585C 41.2688 28.7585 39.2399 27.8711 39.2399 24.1805C 51.9817 22.9302 52.9556 18.9572 52.9556 16.033ZM 46.6456 16.517C 46.5644 17.4245 46.1992 18.9774 39.7471 19.8446C 41.1065 15.0448 43.7036 14.6818 44.9007 14.6818C 46.0166 14.6818 46.7267 15.5489 46.6456 16.517ZM 25.0575 17.3035C 25.0575 17.3035 22.3184 25.8544 22.0953 26.5603C 22.0141 25.8342 20.0054 10.487 20.0054 10.487C 15.3389 10.487 12.8433 13.7944 11.5244 17.2833C 11.5244 17.2833 8.19696 25.8544 7.91291 26.5804C 7.89262 25.9149 7.40567 17.3842 7.40567 17.3842C 7.12162 13.1087 3.18545 10.5071 0 10.5071L 3.855 33.76C 8.74477 33.7398 11.3824 30.4525 12.7621 26.9636C 12.7621 26.9636 15.7041 19.4009 15.8258 19.058C 15.8461 19.3807 17.9359 33.76 17.9359 33.76C 22.846 33.76 25.4836 30.6744 26.9039 27.3064L 33.782 10.5071C 28.9328 10.5071 26.3763 13.7944 25.0575 17.3035ZM 70.9727 9.96262C 67.9495 9.96262 65.6365 11.5962 63.6887 13.9961L 63.6887 13.9759L 65.4336 0C 61.4163 0 58.1497 3.46877 57.5207 8.63158L 54.4773 33.5785C 56.7903 33.5785 59.2453 32.9129 60.5641 31.2189C 61.7409 32.7314 63.5061 33.9415 66.1235 33.9415C 72.9002 33.9415 77.5465 26.1166 77.5465 18.7757C 77.5059 12.0802 74.2393 9.96262 70.9727 9.96262ZM 70.3437 21.9621C 69.6335 26.0561 67.3408 28.8392 65.1293 28.8392C 62.8974 28.8392 61.9438 27.851 61.9438 27.851C 62.3699 24.2612 62.6337 22.063 63.4453 20.1672C 64.2568 18.2715 66.1843 15.2464 68.193 15.2464C 70.1611 15.2464 71.0538 17.848 70.3437 21.9621ZM 94.4679 10.5071L 89.7404 10.5071L 89.7607 10.2651C 90.0854 7.19971 90.8158 5.58633 93.2302 5.32415C 94.8737 5.16281 95.6041 4.31579 95.7867 3.3881C 95.9287 2.66208 96.3751 0.141172 96.3751 0.141172C 86.8796 0.0806699 83.8971 4.15445 83.1261 10.366L 83.1058 10.5071L 83.0043 10.5071C 81.4623 10.5071 79.758 12.2415 79.474 14.4397L 79.3725 15.2464L 82.5377 15.2464L 79.8797 37.0674L 79.0682 40.9798C 79.1696 40.9798 79.2914 41 79.3928 41C 83.8362 40.8387 86.6767 37.3497 87.3057 32.2878L 89.3752 15.2464L 90.8564 15.2464C 92.3172 15.2464 94.0215 13.7944 94.3259 11.3743L 94.4679 10.5071ZM 119.059 10.1038C 113.601 10.1038 108.447 14.0969 106.865 20.3689C 105.282 26.6409 107.676 34.0625 115.711 34.0625C 123.725 34.0625 128.351 26.3384 128.351 19.9051C 128.351 13.5121 123.989 10.1038 119.059 10.1038ZM 121.27 21.7605C 120.986 24.604 119.728 28.9198 116.279 28.9198C 112.81 28.9198 113.297 23.878 113.641 21.4781C 114.007 18.9169 115.447 15.2666 118.552 15.2666C 121.331 15.2666 121.595 18.5539 121.27 21.7605ZM 155.316 17.3035C 155.316 17.3035 152.577 25.8544 152.354 26.5603C 152.273 25.8342 150.264 10.487 150.264 10.487C 145.597 10.487 143.102 13.7944 141.783 17.2833C 141.783 17.2833 138.456 25.8544 138.171 26.5804C 138.151 25.9149 137.664 17.3842 137.664 17.3842C 137.38 13.1087 133.444 10.5071 130.259 10.5071L 134.093 33.76C 138.983 33.7398 141.621 30.4525 143 26.9636C 143 26.9636 145.942 19.4009 146.044 19.058C 146.064 19.3807 148.154 33.76 148.154 33.76C 153.064 33.76 155.702 30.6744 157.122 27.3064L 164 10.5071C 159.171 10.5071 156.615 13.7944 155.316 17.3035ZM 98.9316 0.141172L 94.9548 32.0256L 94.1433 35.9582C 94.2447 35.9582 94.3664 35.9784 94.4679 35.9784C 98.749 35.9179 101.792 32.1869 102.361 27.4879L 104.653 9.19626C 105.343 3.60994 101.995 0.141172 98.9316 0.141172Z"/>
<path id="path1_fill" d="M 12.0557 11.4697L 2.8125 11.4697L 2.8125 19.0283L 13.5498 19.0283L 13.5498 21.3281L 0 21.3281L 0 0L 13.4033 0L 13.4033 2.31445L 2.8125 2.31445L 2.8125 9.16992L 12.0557 9.16992L 12.0557 11.4697Z"/>
<path id="path2_fill" d="M 21.9434 11.2646L 25.459 5.47852L 28.623 5.47852L 23.4375 13.3154L 28.7842 21.3281L 25.6494 21.3281L 21.9873 15.3955L 18.3252 21.3281L 15.1758 21.3281L 20.5225 13.3154L 15.3369 5.47852L 18.4717 5.47852L 21.9434 11.2646Z"/>
<path id="path3_fill" d="M 44.8975 13.5791C 44.8975 15.9912 44.3457 17.9346 43.2422 19.4092C 42.1387 20.8838 40.6445 21.6211 38.7598 21.6211C 36.8359 21.6211 35.3223 21.0107 34.2188 19.79L 34.2188 27.4219L 31.5088 27.4219L 31.5088 5.47852L 33.9844 5.47852L 34.1162 7.23633C 35.2197 5.86914 36.7529 5.18555 38.7158 5.18555C 40.6201 5.18555 42.124 5.90332 43.2275 7.33887C 44.3408 8.77441 44.8975 10.7715 44.8975 13.3301L 44.8975 13.5791ZM 42.1875 13.2715C 42.1875 11.4844 41.8066 10.0732 41.0449 9.03809C 40.2832 8.00293 39.2383 7.48535 37.9102 7.48535C 36.2695 7.48535 35.0391 8.21289 34.2188 9.66797L 34.2188 17.2412C 35.0293 18.6865 36.2695 19.4092 37.9395 19.4092C 39.2383 19.4092 40.2686 18.8965 41.0303 17.8711C 41.8018 16.8359 42.1875 15.3027 42.1875 13.2715Z"/>
<path id="path4_fill" d="M 54.9316 21.6211C 52.7832 21.6211 51.0352 20.918 49.6875 19.5117C 48.3398 18.0957 47.666 16.2061 47.666 13.8428L 47.666 13.3447C 47.666 11.7725 47.9639 10.3711 48.5596 9.14062C 49.165 7.90039 50.0049 6.93359 51.0791 6.24023C 52.1631 5.53711 53.335 5.18555 54.5947 5.18555C 56.6553 5.18555 58.2568 5.86426 59.3994 7.22168C 60.542 8.5791 61.1133 10.5225 61.1133 13.0518L 61.1133 14.1797L 50.376 14.1797C 50.415 15.7422 50.8691 17.0068 51.7383 17.9736C 52.6172 18.9307 53.7305 19.4092 55.0781 19.4092C 56.0352 19.4092 56.8457 19.2139 57.5098 18.8232C 58.1738 18.4326 58.7549 17.915 59.2529 17.2705L 60.9082 18.5596C 59.5801 20.6006 57.5879 21.6211 54.9316 21.6211ZM 54.5947 7.41211C 53.501 7.41211 52.583 7.8125 51.8408 8.61328C 51.0986 9.4043 50.6396 10.5176 50.4639 11.9531L 58.4033 11.9531L 58.4033 11.748C 58.3252 10.3711 57.9541 9.30664 57.29 8.55469C 56.626 7.79297 55.7275 7.41211 54.5947 7.41211Z"/>
<path id="path5_fill" d="M 71.9238 7.91016C 71.5137 7.8418 71.0693 7.80762 70.5908 7.80762C 68.8135 7.80762 67.6074 8.56445 66.9727 10.0781L 66.9727 21.3281L 64.2627 21.3281L 64.2627 5.47852L 66.8994 5.47852L 66.9434 7.30957C 67.832 5.89355 69.0918 5.18555 70.7227 5.18555C 71.25 5.18555 71.6504 5.25391 71.9238 5.39062L 71.9238 7.91016Z"/>
<path id="path6_fill" d="M 78.8379 1.64062L 78.8379 5.47852L 81.7969 5.47852L 81.7969 7.57324L 78.8379 7.57324L 78.8379 17.4023C 78.8379 18.0371 78.9697 18.5156 79.2334 18.8379C 79.4971 19.1504 79.9463 19.3066 80.5811 19.3066C 80.8936 19.3066 81.3232 19.248 81.8701 19.1309L 81.8701 21.3281C 81.1572 21.5234 80.4639 21.6211 79.79 21.6211C 78.5791 21.6211 77.666 21.2549 77.0508 20.5225C 76.4355 19.79 76.1279 18.75 76.1279 17.4023L 76.1279 7.57324L 73.2422 7.57324L 73.2422 5.47852L 76.1279 5.47852L 76.1279 1.64062L 78.8379 1.64062Z"/>
</defs>
</svg>
