<svg id="Layer_1" data-name="Layer 1" xmlns="http://www.w3.org/2000/svg" viewBox="0 0 990.42 226.73"><defs><style>.cls-1{fill:#a4b7c5;}</style></defs><title>Getaround Logo</title><path class="cls-1" d="M80.2,539.49c-34.92,0-57.18,23.57-57.18,56.3,0,34.49,22,57.4,59.14,57.4,16.37,0,34.92-5.67,46.27-17.46l-17-16.8c-6.11,6.33-19,10-28.81,10-18.77,0-30.34-9.61-32.08-22.92h84C138.69,561.75,116.21,539.49,80.2,539.49ZM51,584c3.93-14,15.72-21,30.12-21,15.28,0,26.19,7,27.93,21Z" transform="translate(99.42 -497.81)"/><path class="cls-1" d="M187.79,627.66c-8.29,0-14-5-14-15.28V565.9h29.9V543H174V512.43l-26.62,2.84V543h0V565.9h0v46.48c0,26.84,15.27,40.16,38.63,39.28a59.23,59.23,0,0,0,22-4.58l-7.42-22.7A30.35,30.35,0,0,1,187.79,627.66Z" transform="translate(99.42 -497.81)"/><path class="cls-1" d="M389.54,539.93c-10.91,0-22,2-30.33,15.27l-2-12.44H332.58V650.35h26.63V593.61c0-19.86,12.87-27.28,26.84-27.28,8.73,0,12.43,1.09,17.89,5.67l12-23.13C410.05,543,400.67,539.93,389.54,539.93Z" transform="translate(99.42 -497.81)"/><path class="cls-1" d="M467.88,540.58c-34.26,0-55.65,25.32-55.65,56.09,0,31,20.95,56.08,55.87,56.08s56.09-25.09,56.09-56.08C524.19,565.9,502.14,540.58,467.88,540.58Zm.22,87.73c-19.42,0-29.24-15.27-29.24-31.64,0-16.15,10-31.86,29.24-31.86,17.9,0,29.24,15.71,29.24,31.86C497.34,613,487.52,628.31,468.1,628.31Z" transform="translate(99.42 -497.81)"/><path class="cls-1" d="M615.6,597.76c0,16.37-11.13,30.12-27.49,30.12-17,0-26-12.44-26-28.81V542.76H535.51v56.53c0,33.39,18.77,52.81,44.52,52.81,15.06,0,25.32-5.24,36.45-16.15l1.74,14.62H642V542.76H615.6Z" transform="translate(99.42 -497.81)"/><path class="cls-1" d="M718.15,541c-13.53,0-24.44,5.45-35.35,16.15l-1.75-14.62H657.27v107.8h26.4v-55c0-16.37,11.13-30.12,27.5-30.12,17,0,26,12.44,26,28.81v56.3h26.62V593.83C763.76,560,743.47,541,718.15,541Z" transform="translate(99.42 -497.81)"/><path class="cls-1" d="M864.38,497.81v59.58c-6.33-11.13-24-17.24-35.36-17.24-31.42,0-54.78,19.2-54.78,56.3,0,35.35,23.79,56.3,55.44,56.3,13.09,0,26.4-4.36,34.7-17.24l1.74,14.84H891V497.81Zm-33,130.28c-17,0-30.55-12.87-30.55-31.64C800.87,577,814.4,565,831.42,565c16.81,0,31.21,12.66,31.21,31.43C862.63,615.87,848.23,628.09,831.42,628.09Z" transform="translate(99.42 -497.81)"/><path class="cls-1" d="M299.27,544.53c-12.69-7.13-38.14-7.65-51.87-3.91-17.41,4.75-28,18-28.84,34.66l25.24,5.77c2-12.67,5.8-16.91,16.56-18.65,7.94-1.29,19-1,25.18,5.31,3.4,3.5,3.77,5.13,3.24,10.85-.25,2.73-5.74,3.63-9,4.34-11.81,2.56-30.35,3.93-42,7.12-22.89,6.29-26.1,34-14.62,48.32,11.85,14.77,41.56,18.08,58.22,7.16,2.53-1.66,5-3.47,8.15-5.7v10.29H317c0-9.16,0-18.62,0-27.58.08-16.35.73-32.73.14-49.06C316.66,561,310.22,550.68,299.27,544.53Zm-20.88,80.94a36,36,0,0,1-11.31,3.85c-5,1-10.18,1.84-15.15.76-3.47-.76-7-2.45-8.77-5.5a10.39,10.39,0,0,1-1.45-6,9.35,9.35,0,0,1,2.21-5.53,13.63,13.63,0,0,1,5.73-4.11c7-3.06,14.69-3.92,22.26-4.73l12.42-1.34,3.1-.34,1.5-.16c.56,0,.72-.1.73.45a34.59,34.59,0,0,1-.42,5.55,24.05,24.05,0,0,1-1.33,5.33,22.41,22.41,0,0,1-7.51,10.43A20.55,20.55,0,0,1,278.39,625.47Z" transform="translate(99.42 -497.81)"/><path class="cls-1" d="M-43.56,652.73c-34.91,0-55.86-25.09-55.86-56.07,0-30.77,21.39-56.08,55.65-56.08H22.84S20,558.13,3.34,564.82l-46.76,0c-19.2,0-29.38,15.71-29.38,31.86C-72.8,613-63,628.3-43.56,628.3S-14.32,613-14.32,596.66a33.8,33.8,0,0,0-9.52-23.72H7.71a59.52,59.52,0,0,1,4.81,23.72c0,17.66-6.89,33.4-19.27,43.68,15.37,9.09,19.27,21.5,19.27,34.68,0,30.61-23.41,49.52-55.6,49.52-30.11,0-53.13-17.14-56-43.87l27.11-2.91c1.57,12.85,14.13,21.12,28.86,21.12,15.76,0,28.14-8.56,28.14-23.86S-29.32,652.75-43,652.74Z" transform="translate(99.42 -497.81)"/></svg>