<svg width="115" height="24" viewBox="0 0 115 24" fill="none" xmlns="http://www.w3.org/2000/svg">
<path d="M44.1602 8.72192C44.1602 8.72192 43.9067 8.68858 43.5807 8.68858C39.85 8.68858 38.691 10.6223 38.691 14.5564V20.2909H34.9966V5.66961H38.6186V7.25496C39.85 5.88801 41.3351 5.45459 43.4358 5.45459C43.5445 5.45459 43.7618 5.45459 44.1602 5.48793V8.72192Z" fill="#A4B7C5"/>
<path d="M49.5143 11.457H55.9617C55.9273 10.1898 55.1687 8.58917 52.8242 8.58917C50.8245 8.58917 49.7901 10.0564 49.5143 11.457ZM49.3075 14.158C49.4798 16.3589 51.0314 17.6928 53.2724 17.6928C55.0653 17.6928 56.3065 16.8591 57.1685 15.6253L59.5475 17.7595C58.2373 19.3601 56.3755 20.7273 53.2724 20.7273C48.7558 20.7273 45.6873 17.6261 45.6873 13.191C45.6873 8.95598 48.3765 5.45459 52.7553 5.45459C57.6167 5.45459 59.6509 9.2561 59.6509 12.9242C59.6509 13.4244 59.6164 14.1247 59.6164 14.1247H49.3075V14.158Z" fill="#A4B7C5"/>
<path d="M72.3366 20.2909V11.6337C72.3366 9.7502 71.3098 8.49456 69.5039 8.49456C67.4149 8.49456 66.3172 9.91541 66.3172 12.0302L66.3056 20.2909H62.7056V5.67277H66.2464V7.0737C66.9545 6.31371 68.2647 5.45459 70.2829 5.45459C72.4074 5.45459 73.7883 6.28067 74.6027 7.33805C75.8774 6.01632 77.4708 5.45459 79.4536 5.45459C83.5964 5.45459 85.6146 7.76761 85.6146 11.865V20.2909H82.003V11.6337C82.003 9.7502 80.9762 8.49456 79.1704 8.49456C77.0813 8.49456 75.9482 9.91541 75.9482 12.0302V20.2909H72.3366Z" fill="#A4B7C5"/>
<path d="M89.3237 20.2909V5.67273H92.8146V20.2909H89.3237Z" fill="#A4B7C5"/>
<path d="M89.3237 3.49091V0H92.8146V3.49091H89.3237Z" fill="#A4B7C5"/>
<path d="M100.093 5.67273L102.96 10.0448L105.828 5.67273H109.92L104.954 12.7816L110.269 20.2909H106.178L102.96 15.5183L99.7778 20.2909H95.6511L101.002 12.7816L96.0008 5.67273H100.093Z" fill="#A4B7C5"/>
<path fill-rule="evenodd" clip-rule="evenodd" d="M11 0L10.995 9.585L1.409 0H11ZM22.574 13L11.579 24H1.409L12.404 13H22.574ZM13 11V0H24V11H13ZM24 14.398V24H14.4L24 14.398ZM0 22.574V1.409L10.582 11.992L0 22.574Z" fill="#A4B7C5"/>
</svg>
