<svg width="118" height="31" viewBox="0 0 118 31" fill="none" xmlns="http://www.w3.org/2000/svg">
<path d="M9.70936 0C9.70936 0 0 14.686 0 21.0135C0 23.5886 1.02295 26.0582 2.84381 27.8791C4.66467 29.6999 7.13428 30.7229 9.70936 30.7229C12.2844 30.7229 14.7541 29.6999 16.5749 27.8791C18.3958 26.0582 19.4187 23.5886 19.4187 21.0135C19.4187 14.686 9.70936 0 9.70936 0ZM9.70936 26.7734C7.93623 26.7722 6.23615 26.067 4.98279 24.8127C3.72944 23.5585 3.02538 21.8579 3.02538 20.0848C3.02538 15.8023 9.70936 4.87813 9.70936 4.87813C9.70936 4.87813 16.398 15.8023 16.398 20.0848C16.3968 21.8583 15.6917 23.5589 14.4376 24.813C13.1835 26.0671 11.4829 26.7722 9.70936 26.7734Z" fill="#A4B7C5"/>
<path d="M37.4303 13.593C34.616 12.9222 33.9311 12.4204 33.9311 11.2899V11.2477C33.9311 10.2815 34.813 9.50755 36.3186 9.50755C37.77 9.56398 39.1633 10.0926 40.2868 11.0132L41.6939 9.06664C40.1969 7.83863 38.3108 7.18499 36.3749 7.22327C33.4621 7.22327 31.3701 8.96345 31.3701 11.4776V11.5198C31.3701 14.2215 33.1291 15.1409 36.2483 15.896C38.9734 16.5246 39.5598 17.0874 39.5598 18.1381V18.1803C39.5598 19.2685 38.5513 20.019 36.9612 20.019C35.1601 20.019 33.7341 19.3295 32.3317 18.1146L30.7838 19.958C32.4524 21.4735 34.6274 22.31 36.8815 22.3033C39.9585 22.3033 42.1161 20.671 42.1161 17.927V17.8848C42.1208 15.4551 40.5307 14.3669 37.4303 13.593Z" fill="#A4B7C5"/>
<path d="M58.4062 15.8728C58.4062 18.5745 56.9991 19.9395 54.7195 19.9395C52.4399 19.9395 51.0093 18.4901 51.0093 15.7696V7.43457H48.4342V15.8775C48.4342 20.1318 50.8639 22.3316 54.6773 22.3316C58.4907 22.3316 60.9813 20.1318 60.9813 15.7649V7.43457H58.4062V15.8728Z" fill="#A4B7C5"/>
<path d="M66.8867 9.82204H71.5538V22.0924H74.1336V9.82204H78.8006V7.43457H66.8867V9.82204Z" fill="#A4B7C5"/>
<path d="M97.042 12.1063V12.0641C97.0717 10.8896 96.6349 9.75118 95.8272 8.89801C94.8891 7.95991 93.4397 7.43457 91.6057 7.43457H85.0531V14.7002H83.796V16.9845H85.0531V22.0924H87.6282V16.9845H90.8552L94.4576 22.0924H97.5111L93.5523 16.5435C95.588 15.9572 97.042 14.5126 97.042 12.1063ZM87.6376 14.7002V9.77983H91.39C93.299 9.77983 94.4294 10.6382 94.4294 12.2095V12.2517C94.4294 13.7386 93.2568 14.7002 91.4134 14.7002H87.6376Z" fill="#A4B7C5"/>
<path d="M110.363 7.1811C109.355 7.15583 108.352 7.33393 107.415 7.70478C106.477 8.07562 105.624 8.63159 104.906 9.33951C104.188 10.0474 103.62 10.8928 103.236 11.825C102.852 12.7573 102.66 13.7574 102.671 14.7657V14.8079C102.676 16.8406 103.489 18.7878 104.93 20.2212C106.372 21.6545 108.323 22.4567 110.356 22.4511C112.389 22.4455 114.336 21.6326 115.769 20.1913C117.203 18.75 118.005 16.7984 117.999 14.7657V14.7234C118.013 13.7211 117.825 12.7262 117.445 11.7984C117.065 10.8707 116.502 10.0294 115.788 9.32494C115.075 8.62047 114.227 8.06743 113.295 7.69902C112.362 7.33062 111.365 7.15445 110.363 7.1811ZM115.302 14.8079C115.302 17.655 113.271 19.9674 110.363 19.9674C107.455 19.9674 105.377 17.6222 105.377 14.775V14.7328C105.377 11.8857 107.408 9.57326 110.321 9.57326C113.234 9.57326 115.302 11.9185 115.302 14.7703V14.8079Z" fill="#A4B7C5"/>
</svg>
