<svg width="469" height="498" viewBox="0 0 469 498" fill="none" xmlns="http://www.w3.org/2000/svg">
<g clip-path="url(#clip0)">
<path fill-rule="evenodd" clip-rule="evenodd" d="M233.37 41.8883C233.231 42.0741 233.097 42.2426 232.963 42.4342C232.678 42.8233 232.393 43.2356 232.114 43.6305C226.15 52.1148 220.949 62.2542 219.023 66.418C218.267 68.1021 217.516 69.8036 216.806 71.5457C196.943 119.862 208.015 199.484 213.752 234.026C223.945 232.911 234.284 231.465 244.634 230.355C242.796 219.403 238.618 200.495 237.123 182.289C233.603 139.333 236.483 105.1 245.455 83.2763C254.182 62.0451 267.569 47.5329 281.335 41.4121C294.449 35.5933 312.444 43.9034 312.444 43.9034C357.902 66.1624 328.107 147.225 328.107 147.225C328.107 147.225 410.282 120.895 431.344 161.406C452.271 201.645 406.244 217.76 406.186 217.783C406.186 217.783 421.802 221.418 439.925 234.676C439.925 234.676 486.476 212.278 459.928 149.519C456.559 141.557 451.946 134.525 446.075 128.677C431.146 113.764 408.269 106.424 379.929 107.452C375.257 107.62 370.806 107.998 366.71 108.485C367.129 104.525 367.437 100.233 367.536 95.7327C368.141 67.742 360.339 44.8442 344.974 29.5074C339.534 24.0776 333.134 19.5712 325.943 16.0869C307.197 7.02765 287.944 5.80233 270.275 12.5445C256.393 17.8407 243.82 27.9278 233.37 41.8883Z" fill="#71C884" fill-opacity="0.1"/>
<path fill-rule="evenodd" clip-rule="evenodd" d="M195.832 486.824C211.89 480.703 226.197 468.119 237.49 450.587C240.44 445.877 245.932 436.272 251.267 422.631C268.879 372.137 258.063 304.907 252.367 272.567C247.055 273.154 230.485 275.883 222.328 276.65C224.585 288.589 227.448 298.485 228.978 317.085C232.498 360.029 229.624 394.269 220.652 416.092C211.925 437.323 198.537 451.847 184.772 457.956C171.652 463.781 153.662 455.465 153.662 455.465C108.205 433.218 138 352.143 138 352.143C138 352.143 48.3658 381.528 34.7572 337.968C19.5253 289.176 61.3809 274.646 66.4776 273.334C66.4776 273.334 51.9789 267.224 38.8415 257.492C38.8415 257.492 -13.1842 281.452 6.17275 349.855C6.17275 349.855 10.7516 362.974 20.0315 370.703C36.2525 384.199 57.8377 392.945 86.1836 391.923C90.8439 391.754 95.2948 391.377 99.3907 390.889C98.9776 394.844 98.6635 399.141 98.5646 403.642C97.9595 431.632 105.767 454.524 121.133 469.861C126.573 475.291 132.973 479.809 140.164 483.282C158.904 492.347 178.157 493.572 195.832 486.824Z" fill="#71C884" fill-opacity="0.1"/>
<path fill-rule="evenodd" clip-rule="evenodd" d="M313.759 449.154C282.871 464.77 261.553 434.352 261.553 434.352C253.722 454.41 246.013 465.182 246.013 465.182C266.44 486.407 308.907 498.852 346.55 463.858C362.701 448.841 368.834 426.123 367.815 397.824C367.647 393.173 367.263 388.724 366.78 384.642C370.748 385.06 375.047 385.368 379.556 385.467C407.6 386.07 430.535 378.277 445.906 362.935C451.335 357.516 455.861 351.128 459.346 343.945C468.428 325.24 470.342 305.745 462.901 288.387C397.593 136.186 101.287 315.002 38.3001 194.63C31.6558 181.924 40.7903 163.573 40.7903 163.573C63.0911 118.201 144.306 147.94 144.306 147.94C144.3 147.946 117.915 65.8843 158.514 44.8971C190.211 28.5091 209.394 54.4964 209.394 54.4964C210.97 50.8088 217.423 37.8297 225.481 28.0562C202.278 -0.248173 158.811 -2.83238 125.723 30.1932C110.788 45.1003 103.44 67.9284 104.458 96.2153C104.627 100.879 105.005 105.321 105.494 109.409C101.531 108.985 97.2261 108.683 92.717 108.585C64.6737 107.981 41.7386 115.762 26.3671 131.105C20.9272 136.535 16.4123 142.923 12.9214 150.1C3.84517 168.811 2.61754 188.027 9.37238 205.664C17.9134 227.963 39.1204 246.413 68.4845 259.032C167.398 301.547 388.062 191.215 433.967 299.415C439.14 311.593 431.477 330.472 431.477 330.472C409.182 375.85 327.961 346.105 327.961 346.105C327.961 346.105 354.55 428.533 313.759 449.154Z" fill="#71C884" fill-opacity="0.1"/>
</g>
<defs>
<clipPath id="clip0">
<rect width="469" height="498" fill="white"/>
</clipPath>
</defs>
</svg>
