<svg width="453" height="510" viewBox="0 0 453 510" fill="none" xmlns="http://www.w3.org/2000/svg">
<g opacity="0.15">
<path fill-rule="evenodd" clip-rule="evenodd" d="M239.274 223.029L359.927 166.303C359.927 166.303 401.318 230.381 362.871 308.288C362.871 308.287 331.367 381.849 238.925 391.952L239.274 223.029Z" fill="#98D0DE"/>
<path fill-rule="evenodd" clip-rule="evenodd" d="M213.709 223.029L93.0548 166.303C93.0548 166.303 51.6642 230.381 90.1113 308.288C90.1113 308.287 121.615 381.849 214.057 391.952L213.709 223.029Z" fill="#98D0DE"/>
<path fill-rule="evenodd" clip-rule="evenodd" d="M226.253 201.155L345.418 144.82C345.418 144.82 305.263 88.5263 226.253 87.9114C226.253 87.9114 155.947 84.5024 107.32 144.533L226.253 201.155Z" fill="#98D0DE"/>
<path fill-rule="evenodd" clip-rule="evenodd" d="M261.77 95.4941C261.77 95.4941 280.289 43.5862 308.639 24.0075C308.639 24.0075 330.729 9.37965 318.127 1.95228C318.127 1.95228 306.638 -7.01218 293.263 13.4778C293.263 13.4778 262.227 63.7915 252.453 95.4941C242.68 127.197 261.77 95.4941 261.77 95.4941Z" fill="#98D0DE"/>
<path fill-rule="evenodd" clip-rule="evenodd" d="M187.584 95.4941C187.584 95.4941 169.064 43.5862 140.715 24.0075C140.715 24.0075 118.624 9.37965 131.227 1.95228C131.227 1.95228 142.716 -7.01218 156.09 13.4778C156.09 13.4778 187.126 63.7915 196.9 95.4941C206.674 127.197 187.584 95.4941 187.584 95.4941Z" fill="#98D0DE"/>
<path fill-rule="evenodd" clip-rule="evenodd" d="M150.773 334.289C150.773 328.559 155.438 323.914 161.192 323.914C166.946 323.914 171.61 328.559 171.61 334.289C171.61 340.019 166.946 344.664 161.192 344.664C155.438 344.664 150.773 340.019 150.773 334.289Z" fill="#DFF9FF"/>
<path fill-rule="evenodd" clip-rule="evenodd" d="M150.773 238.019C150.773 232.289 155.438 227.645 161.192 227.645C166.946 227.645 171.61 232.289 171.61 238.019C171.61 243.749 166.946 248.394 161.192 248.394C155.438 248.394 150.773 243.749 150.773 238.019Z" fill="#DFF9FF"/>
<path fill-rule="evenodd" clip-rule="evenodd" d="M114.969 284.049C114.969 274.204 122.984 266.222 132.871 266.222C142.758 266.222 150.773 274.204 150.773 284.049C150.773 293.894 142.758 301.875 132.871 301.875C122.984 301.875 114.969 293.894 114.969 284.049Z" fill="#DFF9FF"/>
<path fill-rule="evenodd" clip-rule="evenodd" d="M171.264 284.049C171.264 281.066 173.693 278.646 176.69 278.646C179.686 278.646 182.116 281.066 182.116 284.049C182.116 287.033 179.686 289.452 176.69 289.452C173.693 289.452 171.264 287.033 171.264 284.049Z" fill="#DFF9FF"/>
<path fill-rule="evenodd" clip-rule="evenodd" d="M301.925 238.019C301.925 243.749 297.26 248.394 291.506 248.394C285.752 248.394 281.087 243.749 281.087 238.019C281.087 232.289 285.752 227.645 291.506 227.645C297.26 227.645 301.925 232.289 301.925 238.019Z" fill="#DFF9FF"/>
<path fill-rule="evenodd" clip-rule="evenodd" d="M301.925 334.289C301.925 340.019 297.26 344.664 291.506 344.664C285.752 344.664 281.087 340.019 281.087 334.289C281.087 328.559 285.752 323.914 291.506 323.914C297.26 323.914 301.925 328.559 301.925 334.289Z" fill="#DFF9FF"/>
<path fill-rule="evenodd" clip-rule="evenodd" d="M337.729 288.259C337.729 298.105 329.714 306.087 319.827 306.087C309.94 306.087 301.925 298.105 301.925 288.259C301.925 278.414 309.94 270.433 319.827 270.433C329.714 270.433 337.729 278.414 337.729 288.259Z" fill="#DFF9FF"/>
<path fill-rule="evenodd" clip-rule="evenodd" d="M281.434 288.259C281.434 291.243 279.005 293.662 276.008 293.662C273.012 293.662 270.582 291.243 270.582 288.259C270.582 285.275 273.012 282.856 276.008 282.856C279.005 282.856 281.434 285.275 281.434 288.259Z" fill="#DFF9FF"/>
<path fill-rule="evenodd" clip-rule="evenodd" d="M206.576 65.0712C206.576 65.0712 192.777 32.3603 185.244 22.217C185.244 22.217 226.429 14.9453 267.494 20.9333C267.494 20.9333 251.396 47.9402 245.516 64.7779C245.516 64.7779 224.915 61.8992 206.576 65.0712Z" fill="#98D0DE"/>
<path fill-rule="evenodd" clip-rule="evenodd" d="M226.369 509.387C226.369 509.387 73.6124 479.322 12.6076 306.15C12.6076 306.15 -56.9299 111.439 130.615 35.3948C130.615 35.3948 148.628 55.4835 157.602 77.7781C157.602 77.7781 102.485 97.3748 71.3894 156.765C71.3894 156.765 53.0892 186.838 50.5708 232.063C50.5708 232.062 46.9588 285.842 77.7452 334.289C77.7452 334.289 111.014 391.809 178.24 409.658C178.24 409.658 197.927 415.894 226.372 415.843H226.629C255.073 415.894 274.761 409.658 274.761 409.658C341.986 391.809 375.255 334.289 375.255 334.289C406.041 285.842 402.429 232.063 402.429 232.063C399.911 186.838 381.611 156.765 381.611 156.765C350.514 97.3748 295.398 77.7781 295.398 77.7781C304.373 55.4835 322.385 35.3948 322.385 35.3948C509.929 111.439 440.393 306.15 440.393 306.15C379.388 479.322 226.63 509.387 226.63 509.387C226.63 509.387 226.511 509.416 226.369 509.387Z" fill="#98D0DE"/>
</g>
</svg>
