<svg width="516" height="517" viewBox="0 0 516 517" fill="none" xmlns="http://www.w3.org/2000/svg">
<path fill-rule="evenodd" clip-rule="evenodd" d="M516 258.856C516 242.428 514.473 226.399 511.317 209.854L510.088 203.491H509.924C495.822 141.285 458.824 85.0747 407.661 48.4855C404.138 45.9576 399.259 46.7794 396.73 50.2935C394.217 53.8076 395.016 58.6992 398.531 61.2115C448.206 96.7441 483.685 152.015 495.908 212.851L496.229 214.44C499.001 229.428 500.34 243.97 500.34 258.856C500.34 263.176 503.84 266.682 508.17 266.682C512.5 266.682 516 263.176 516 258.856ZM63.3674 112.937C99.4881 64.5613 152.107 31.588 211.554 20.0908C226.611 17.1402 242.139 15.6531 257.689 15.6531C294.758 15.6531 330.502 23.9571 363.961 40.3224C367.86 42.2243 372.551 40.6277 374.438 36.7379C376.333 32.8559 374.727 28.1678 370.844 26.2659C335.232 8.83619 297.169 0 257.689 0C241.129 0 224.591 1.58879 208.563 4.72724C145.295 16.968 89.2775 52.0701 50.8156 103.577C48.2238 107.044 48.9441 111.943 52.4051 114.526C53.8145 115.575 55.451 116.084 57.0797 116.084C59.4758 116.084 61.8327 114.996 63.3674 112.937ZM15.8459 324.207C20.0507 323.198 22.6425 318.971 21.6402 314.769C21.4836 314.119 21.327 313.571 21.1783 313.062H21.1939L19.5496 303.725C9.08842 250.826 17.318 195.069 42.3824 146.717C44.3713 142.882 43.2751 138.154 39.4383 136.167C35.5937 134.179 31.6786 135.681 29.6897 139.516C3.12964 190.741 -8.62349 249.8 7.03691 305.909V305.948C7.03691 311.873 6.59842 314.049 7.44408 316.506C7.62418 317.038 6.21474 317.61 6.41049 318.431C7.27182 322.008 10.4822 324.434 14.0214 324.434C14.6244 324.419 15.2351 324.341 15.8459 324.207ZM201.108 505.651C263.703 422.266 282.895 347.906 265.324 257.001C264.502 252.759 260.375 249.98 256.147 250.802C251.903 251.624 249.131 255.725 249.945 259.975C266.843 347.241 249.053 415.692 188.588 496.251C185.988 499.71 186.693 504.618 190.154 507.2C191.563 508.257 193.216 508.766 194.844 508.766C197.225 508.789 199.574 507.709 201.108 505.651ZM235.381 511.802C296.551 425.374 314.701 347.39 296.065 251.068C294.076 240.784 288.196 231.893 279.52 226.031C270.868 220.185 260.446 218.064 250.196 220.059C239.931 222.047 231.051 227.909 225.194 236.581C219.345 245.245 217.215 255.678 219.204 265.939C226.181 302.011 226.204 334.601 219.282 365.571C218.343 369.789 220.997 373.969 225.218 374.908C229.462 375.855 233.627 373.194 234.567 368.975C241.966 335.877 241.974 301.182 234.583 262.949C233.392 256.782 234.669 250.52 238.177 245.316C241.685 240.111 247.009 236.597 253.179 235.399C259.342 234.21 265.574 235.478 270.758 238.976C275.973 242.49 279.497 247.828 280.71 254.011C298.453 345.738 281.078 420.138 222.61 502.739C220.112 506.269 220.95 511.145 224.482 513.657C225.86 514.628 227.434 515.097 229 515.097C231.435 515.097 233.854 513.955 235.381 511.802ZM169.545 495.367C193.043 465.234 210.035 437.286 221.483 409.901C223.15 405.909 221.263 401.323 217.27 399.656C213.261 397.973 208.688 399.859 207.028 403.858C196.128 429.936 179.826 456.719 157.197 485.732C154.534 489.144 155.145 494.052 158.559 496.705C159.992 497.824 161.683 498.364 163.367 498.364C165.7 498.38 168.002 497.347 169.545 495.367ZM140.573 481.498C196.731 411.427 215.845 354.668 206.527 285.607C205.947 281.31 201.978 278.359 197.718 278.9C193.435 279.479 190.428 283.415 191.007 287.704C199.809 352.892 182.238 404.492 128.358 471.723C125.649 475.104 126.197 480.034 129.572 482.719C131.012 483.877 132.743 484.441 134.466 484.441C136.752 484.433 139.031 483.447 140.573 481.498ZM326.384 320.889C330.714 320.889 334.159 317.492 334.097 313.188C333.76 291.156 331.325 268.396 326.799 245.104C320.394 212.014 291.336 188.002 257.674 188.002C253.171 188.002 248.646 188.44 244.229 189.293C225.742 192.878 209.761 203.444 199.221 219.042C194.163 226.54 190.632 234.82 188.729 243.656C187.821 247.883 190.506 252.047 194.735 252.954C198.979 253.839 203.129 251.17 204.037 246.951C205.517 240.072 208.273 233.615 212.204 227.784C220.394 215.653 232.829 207.42 247.213 204.633C250.65 203.968 254.174 203.6 257.674 203.6C283.842 203.6 306.448 222.227 311.428 247.961C315.758 270.361 318.115 292.306 318.436 313.422C318.499 317.704 321.983 320.897 326.266 320.897C326.298 320.889 326.345 320.889 326.384 320.889ZM272.277 512.992C306.292 460.64 325.812 409.282 331.943 355.983C332.429 351.687 329.359 347.805 325.061 347.319C320.746 346.834 316.878 349.91 316.392 354.199C310.535 405.032 291.806 454.183 259.138 504.461C256.781 508.093 257.815 512.937 261.44 515.293C262.763 516.146 264.243 516.553 265.7 516.553C268.26 516.553 270.789 515.301 272.277 512.992ZM312.094 508.28C362.074 422.666 376.528 337.145 357.564 239.141C351.996 210.409 334.245 185.411 308.883 170.572C305.156 168.381 300.356 169.633 298.179 173.366C295.995 177.099 297.248 181.889 300.975 184.073C322.453 196.642 337.471 217.798 342.193 242.115C360.383 336.174 346.539 418.244 298.579 500.391C296.41 504.132 297.67 508.922 301.39 511.09C302.627 511.826 303.989 512.162 305.336 512.162C308.014 512.162 310.637 510.793 312.094 508.28ZM114.193 464.35C170.438 395.053 186.395 343.696 173.084 274.869C168.707 252.266 173.39 229.318 186.278 210.253C199.167 191.179 218.695 178.273 241.285 173.891C249.006 172.38 257.016 172.004 264.776 172.623C269.043 172.967 272.864 169.758 273.209 165.453C273.561 161.149 270.351 157.369 266.036 157.024C256.867 156.281 247.408 156.75 238.294 158.519C211.601 163.685 188.517 178.946 173.296 201.479C158.074 224.004 152.538 251.123 157.706 277.827C170.007 341.434 154.918 389.309 102.033 454.465C99.308 457.83 99.817 462.761 103.176 465.469C104.625 466.643 106.371 467.23 108.101 467.23C110.388 467.246 112.643 466.26 114.193 464.35ZM354.745 495.672C366.459 472.239 375.894 448.078 382.793 423.855C383.967 419.699 381.563 415.371 377.405 414.189C373.24 412.992 368.91 415.418 367.735 419.574C361.111 442.866 352.043 466.103 340.752 488.667C338.818 492.533 340.376 497.237 344.245 499.17C345.38 499.718 346.57 499.984 347.745 499.984C350.61 500 353.367 498.427 354.745 495.672ZM392.126 382.343C399.847 335.188 398.602 286.39 388.305 233.192C376.207 170.697 321.279 125.335 257.705 125.335C249.194 125.335 240.667 126.156 232.367 127.776C197.452 134.523 167.266 154.481 147.362 183.963C127.45 213.43 120.215 248.892 126.972 283.822C130.386 301.463 131.302 316.271 129.861 330.437C129.423 334.742 132.555 338.577 136.854 339.023C141.223 339.375 144.997 336.331 145.436 332.026C147.049 316.295 146.062 300.031 142.351 280.84C136.376 250.019 142.766 218.729 160.337 192.721C177.9 166.714 204.53 149.104 235.35 143.148C242.671 141.716 250.196 140.995 257.697 140.995C313.801 140.995 362.262 181.021 372.934 236.174C382.871 287.524 384.085 334.515 376.669 379.823C375.972 384.088 378.854 388.111 383.137 388.8C383.568 388.878 383.975 388.91 384.406 388.91C388.172 388.894 391.5 386.178 392.126 382.343ZM90.2876 444.079C111.022 418.4 125.437 395.609 134.34 374.431C136.016 370.439 134.145 365.853 130.151 364.178C126.15 362.511 121.577 364.373 119.901 368.349C111.578 388.158 97.8986 409.713 78.096 434.249C75.3789 437.614 75.9114 442.545 79.2705 445.253C80.7191 446.411 82.4574 446.983 84.18 446.983C86.4743 446.983 88.7451 445.989 90.2876 444.079ZM68.8798 420.693C119.964 356.218 118.633 323.221 111.594 286.789C104.037 247.765 112.126 208.124 134.372 175.174C142.358 163.356 151.95 152.759 162.897 143.688C166.225 140.925 166.687 135.994 163.923 132.668C161.159 129.342 156.226 128.888 152.898 131.643C140.808 141.661 130.206 153.361 121.389 166.416C96.8023 202.825 87.8681 246.631 96.2151 289.747C102.698 323.268 103.654 351.585 56.6021 410.965C53.9163 414.362 54.4879 419.277 57.8862 421.961C59.327 423.104 61.034 423.652 62.741 423.652C65.0509 423.66 67.3373 422.642 68.8798 420.693ZM399.737 472.388C430.338 395.218 436.469 317.32 419.046 227.229C414.583 204.117 405.391 182.656 391.742 163.434C389.237 159.912 384.359 159.083 380.819 161.587C377.296 164.092 376.458 168.975 378.971 172.505C391.32 189.888 399.635 209.306 403.668 230.21C420.503 317.234 414.63 392.353 385.181 466.635C383.591 470.65 385.557 475.205 389.581 476.794C390.529 477.17 391.492 477.342 392.455 477.342C395.571 477.342 398.523 475.471 399.737 472.388ZM363.115 142.545C365.872 139.211 365.394 134.272 362.043 131.525C332.664 107.326 295.611 93.997 257.689 93.997C247.166 93.997 236.634 95.0066 226.4 97.0102C213.872 99.4365 201.594 103.326 189.919 108.586C185.98 110.362 184.219 114.996 185.996 118.932C187.766 122.869 192.393 124.63 196.348 122.854C206.918 118.095 218.037 114.573 229.391 112.374C238.646 110.566 248.168 109.65 257.689 109.65C291.978 109.65 325.507 121.711 352.083 143.602C353.539 144.807 355.293 145.394 357.055 145.394C359.318 145.394 361.549 144.424 363.115 142.545ZM447.219 253.228C451.495 252.571 454.431 248.572 453.766 244.298C452.599 236.683 451.299 229.021 449.796 221.28C432.005 129.373 351.221 62.6673 257.689 62.6673C245.169 62.6673 232.633 63.8726 220.457 66.2518C169.122 76.1916 124.725 105.533 95.4477 148.877C79.8343 171.989 69.5141 197.542 64.769 224.818C64.0251 229.076 66.8831 233.13 71.1428 233.873C75.4494 234.617 79.4584 231.76 80.2023 227.502C84.5637 202.411 94.0618 178.907 108.422 157.635C135.358 117.758 176.201 90.7646 223.44 81.6154C234.653 79.4318 246.171 78.3204 257.689 78.3204C343.736 78.3204 418.06 139.696 434.425 224.254C435.881 231.807 437.15 239.274 438.285 246.701C438.872 250.567 442.216 253.33 446.014 253.33C446.413 253.322 446.812 253.291 447.219 253.228ZM445.724 434.053C458.338 386.593 462.543 338.225 458.612 286.186C458.284 281.874 454.525 278.665 450.226 278.97C445.904 279.291 442.67 283.048 442.999 287.352C446.804 337.622 442.748 384.292 430.596 430.023C429.484 434.194 431.982 438.491 436.155 439.602C436.829 439.774 437.518 439.861 438.176 439.861C441.637 439.868 444.8 437.552 445.724 434.053ZM50.103 393.833C90.1623 340.941 85.6365 317.524 80.8444 292.713C79.2314 284.417 78.1978 275.871 77.7593 267.277C77.5479 262.949 73.9381 259.631 69.5454 259.857C65.231 260.077 61.9031 263.755 62.1224 268.068C62.5922 277.381 63.7197 286.679 65.4659 295.687C69.9291 318.792 73.4605 337.043 37.6138 384.37C35.0064 387.814 35.6798 392.729 39.1329 395.327C40.5502 396.4 42.2102 396.916 43.8545 396.916C46.2192 396.94 48.5605 395.867 50.103 393.833ZM34.2077 362.479C56.1792 330.132 53.3604 315.551 50.103 298.677C39.3678 243.226 50.8704 186.906 82.4809 140.088C114.099 93.2691 162.051 61.5794 217.505 50.8492C239.422 46.5602 262.372 45.7932 285.103 48.783C289.417 49.2917 293.333 46.3254 293.881 42.0443C294.444 37.7553 291.438 33.8264 287.139 33.2629C262.756 30.054 238.059 30.8758 214.522 35.4856C154.973 47.0142 103.466 81.0519 69.5062 131.338C35.5545 181.615 23.1984 242.107 34.7323 301.659C37.653 316.764 39.5792 326.728 21.2644 353.69C18.8292 357.267 19.7688 362.143 23.3472 364.569C24.694 365.485 26.2209 365.923 27.74 365.923C30.23 365.915 32.6886 364.718 34.2077 362.479ZM481.312 379.103C481.062 379.103 480.795 379.087 480.506 379.072C476.207 378.618 473.083 374.783 473.505 370.478C478.407 322.415 475.659 272.646 465.158 218.291C450.657 143.437 396.621 81.9441 324.137 57.7992C320.041 56.4295 317.818 51.9997 319.188 47.8986C320.558 43.8053 324.959 41.5747 329.093 42.9522C406.917 68.8737 464.963 134.93 480.529 215.324C491.343 271.206 494.146 322.478 489.095 372.075C488.704 376.105 485.29 379.103 481.312 379.103Z" fill="black" fill-opacity="0.24"/>
</svg>
