<svg width="18" height="12" viewBox="0 0 18 12" fill="none" xmlns="http://www.w3.org/2000/svg">
<path d="M13.3477 3.5098C13.3477 3.5098 11.8844 7.9133 11.7744 8.2871C11.7321 7.9133 10.6664 0 10.6664 0C8.1711 0 6.843 1.698 6.141 3.5098C6.141 3.5098 4.3647 7.9296 4.2209 8.3033C4.2124 7.954 3.9502 3.5586 3.9502 3.5586C3.7979 1.3487 1.7002 0.00809956 0 0.00809956L2.047 12C4.6607 11.9919 6.0649 10.2938 6.8008 8.4902C6.8008 8.4902 8.3656 4.5904 8.4333 4.4116C8.4502 4.5823 9.5583 12 9.5583 12C12.172 12 13.5846 10.4076 14.3459 8.6689L18 0C15.4117 0 14.0498 1.698 13.3477 3.5098Z" fill="white"/>
</svg>
