<svg width="152" height="29" viewBox="0 0 152 29" fill="none" xmlns="http://www.w3.org/2000/svg">
<g clip-path="url(#clip0)">
<path d="M152 28.4356C152 28.7395 151.747 29 151.451 29H124.379C124.083 29 123.83 28.7395 123.83 28.4356V0.564371C123.83 0.260479 124.083 0 124.379 0H151.451C151.747 0 152 0.260479 152 0.564371V28.4356Z" fill="#A0B6C7"/>
<path d="M28.2123 28.4356C28.2123 28.7395 27.9589 29 27.6632 29H0.549041C0.253404 29 0 28.7395 0 28.4356V0.564371C0 0.260479 0.253404 0 0.549041 0H27.621C27.9166 0 28.17 0.260479 28.17 0.564371V28.4356H28.2123Z" fill="#A0B6C7"/>
<path d="M90.1263 0.868263C90.1263 0.390719 89.7462 0 89.2817 0H62.7587C62.2942 0 61.9141 0.390719 61.9141 0.868263V28.1317C61.9141 28.6093 62.2942 29 62.7587 29H82.5242L90.1263 21.1856V0.868263Z" fill="#A0B6C7"/>
<path d="M59.1693 28.4356C59.1693 28.7395 58.9159 29 58.6203 29H31.5061C31.2104 29 30.957 28.7395 30.957 28.4356V0.564371C30.957 0.260479 31.2104 0 31.5061 0H58.578C58.8737 0 59.1271 0.260479 59.1271 0.564371V28.4356H59.1693Z" fill="#A0B6C7"/>
<path d="M121.043 28.4356C121.043 28.7395 120.79 29 120.494 29H93.4221C93.1265 29 92.873 28.7395 92.873 28.4356V0.564371C92.873 0.260479 93.1265 0 93.4221 0H120.494C120.79 0 121.043 0.260479 121.043 0.564371V28.4356Z" fill="#A0B6C7"/>
<path d="M76.4009 9.89844C76.8232 9.89844 77.4145 9.98526 77.6679 10.0721C78.597 10.2892 79.315 10.8101 79.8218 11.635C80.6243 12.9808 80.4553 14.9344 79.0616 15.8895C78.8927 15.9763 78.766 16.1065 78.597 16.2368C78.6393 16.3236 79.9063 18.364 80.3709 19.0586C80.4553 19.1454 80.3709 19.3191 80.2442 19.3191H77.4567C77.33 19.3191 77.2455 19.2757 77.1611 19.1454L75.6829 16.7577H74.5003V18.9718C74.5003 19.1454 74.3314 19.3191 74.1625 19.3191H72.0508C71.8818 19.3191 71.7129 19.1454 71.7129 18.9718V10.2892C71.7129 10.1155 71.8818 9.94185 72.0508 9.94185H76.4009V9.89844ZM74.5003 14.4134H76.4009C76.5698 14.4134 76.7387 14.37 76.9077 14.2832C77.2878 14.1095 77.4567 13.7622 77.4567 13.3281C77.4567 12.8505 77.2878 12.6335 76.9499 12.4164C76.7387 12.2862 76.5276 12.2427 76.3164 12.2427C75.7251 12.2427 75.0916 12.2427 74.5003 12.2427V14.4134Z" fill="white"/>
<path d="M19.6395 10.2023V18.9284C19.6395 19.102 19.5128 19.2323 19.3439 19.2323H17.1477C16.9788 19.2323 16.8521 19.102 16.8521 18.9284C16.8521 17.8865 16.8521 14.7173 16.8521 14.5871C15.9652 15.846 15.036 17.105 14.1491 18.4508C13.9802 18.1904 11.4884 14.6305 11.3617 14.4134V18.9718C11.3617 19.1454 11.235 19.2757 11.066 19.2757H8.86986C8.70092 19.2757 8.57422 19.1454 8.57422 18.9718V10.2023C8.57422 10.0287 8.70092 9.89844 8.86986 9.89844H10.8126C10.8971 9.89844 10.9816 9.94185 11.066 10.0287L14.0646 14.2832L17.1055 10.0287C17.1477 9.94185 17.2744 9.89844 17.3589 9.89844H19.3439C19.4706 9.89844 19.6395 10.0287 19.6395 10.2023" fill="white"/>
<path d="M49.5403 9.89844C49.7092 9.89844 49.8781 10.0287 49.8781 10.2457V15.1514C49.8359 16.2802 49.498 17.3655 48.6533 18.1904C47.9776 18.885 47.1329 19.2323 46.2038 19.4059C45.6547 19.4927 45.0635 19.5362 44.5144 19.4927C43.3319 19.4059 42.2338 19.0152 41.3891 18.1035C40.8401 17.4957 40.5022 16.7577 40.3755 15.8895C40.291 15.4553 40.291 14.9778 40.291 14.5436C40.291 13.4583 40.291 11.1574 40.291 10.2892C40.291 10.1155 40.4599 9.94185 40.6289 9.94185H42.6983C42.8673 9.94185 43.0362 10.0721 43.0362 10.2892V14.5002C43.0362 14.9778 43.0785 15.4987 43.2474 15.9329C43.4163 16.3236 43.6275 16.6275 44.0076 16.8445C44.5144 17.105 45.0212 17.1484 45.5703 17.0182C46.2882 16.888 46.7528 16.4538 46.9217 15.7158C47.0062 15.4553 47.0062 15.1948 47.0062 14.9344C47.0062 13.7188 47.0062 11.2008 47.0062 10.2892C47.0062 10.1155 47.1329 9.94185 47.3441 9.94185H49.5403V9.89844Z" fill="white"/>
<path d="M108.287 9.89844L112.341 18.9718C112.384 19.102 112.299 19.2757 112.172 19.2757H109.723C109.554 19.2757 109.427 19.1889 109.343 19.0152L108.963 18.0601H105.035L104.655 19.0152C104.57 19.1889 104.444 19.2757 104.275 19.2757H101.825C101.656 19.2757 101.572 19.102 101.656 18.9718L105.753 9.89844H108.287ZM107.907 15.8026L106.935 13.1978L105.964 15.8026H107.907Z" fill="white"/>
<path d="M137.176 10.2457V16.8445H141.019C141.188 16.8445 141.357 17.0182 141.357 17.1919V18.9284C141.357 19.102 141.188 19.2757 141.019 19.2757H134.727C134.558 19.2757 134.389 19.102 134.389 18.9284V10.2457C134.389 10.0721 134.558 9.89844 134.727 9.89844H136.796C137.049 9.89844 137.176 10.0287 137.176 10.2457" fill="white"/>
<path d="M75.4297 28.9992L82.7362 21.4453H89.8737L82.525 28.9992H75.4297Z" fill="#81A0B7"/>
<path d="M90.1275 21.1875H83.3701C82.9055 21.1875 82.5254 21.5782 82.5254 22.0558V29.0019L90.1275 21.1875Z" fill="#BBCEDD"/>
</g>
<defs>
<clipPath id="clip0">
<rect width="152" height="29" fill="white"/>
</clipPath>
</defs>
</svg>
